<svg width="0" height="0" class="hidden">
<defs>

  <symbol viewBox="0 0 32 32" xmlns="http://www.w3.org/2000/svg" id="bookmark">
    <path d="M30 10h-9.031L18 1.672C17.641.422 16.813 0 16 0s-1.641.422-2 1.672L11.031 10H2c-1.141 0-2 .938-2 2 0 .859.438 1.359 1.19 2l6.623 5-3.208 9C4.234 28.922 4 29.484 4 30c0 .984.766 2 2 2 .719 0 1.016-.25 2-.895l8-6.021 8 6.021c.984.645 1.281.895 2 .895 1.234 0 2-1.016 2-2 0-.516-.234-1.078-.605-2l-3.208-9 6.623-5c.753-.641 1.19-1.141 1.19-2 0-1.062-.859-2-2-2zm-10.567 7.577l2.477 6.948L16 20.077l-5.909 4.448 2.477-6.948L7.829 14h6.022L16 7.974 18.148 14h6.022l-4.737 3.577z"></path>
  </symbol>
  <symbol viewBox="0 0 512 512" xmlns="http://www.w3.org/2000/svg" id="close">
    <path d="M437.5 386.6L306.9 256l130.6-130.6c14.1-14.1 14.1-36.8 0-50.9-14.1-14.1-36.8-14.1-50.9 0L256 205.1 125.4 74.5c-14.1-14.1-36.8-14.1-50.9 0-14.1 14.1-14.1 36.8 0 50.9L205.1 256 74.5 386.6c-14.1 14.1-14.1 36.8 0 50.9 14.1 14.1 36.8 14.1 50.9 0L256 306.9l130.6 130.6c14.1 14.1 36.8 14.1 50.9 0 14-14.1 14-36.9 0-50.9z"></path>
  </symbol>
  <symbol viewBox="0 0 16 16" xmlns="http://www.w3.org/2000/svg" id="login">
    <path d="M12 9H4a4 4 0 0 0-4 4v3h16v-3a4 4 0 0 0-4-4z"></path>
    <path d="M12 5V4a4 4 0 0 0-8 0v1a4 4 0 0 0 8 0z"></path>
  </symbol>
  <symbol xmlns="http://www.w3.org/2000/svg" viewBox="0 0 24 24" id="logo">
    <path d="M15.5 14h-.79l-.28-.27A6.471 6.471 0 0 0 16 9.5 6.5 6.5 0 1 0 9.5 16c1.61 0 3.09-.59 4.23-1.57l.27.28v.79l5 4.99L20.49 19l-4.99-5zm-6 0C7.01 14 5 11.99 5 9.5S7.01 5 9.5 5 14 7.01 14 9.5 11.99 14 9.5 14z"></path>
    <path d="M0 0h24v24H0z" fill="none"></path>
  </symbol>

  <symbol xmlns="http://www.w3.org/2000/svg" viewBox="0 0 24 24" id="search">
    <path d="M15.5 14h-.79l-.28-.27C15.41 12.59 16 11.11 16 9.5 16 5.91 13.09 3 9.5 3S3 5.91 3 9.5 5.91 16 9.5 16c1.61 0 3.09-.59 4.23-1.57l.27.28v.79l5 4.99L20.49 19l-4.99-5zm-6 0C7.01 14 5 11.99 5 9.5S7.01 5 9.5 5 14 7.01 14 9.5 11.99 14 9.5 14z"></path>
    <path d="M0 0h24v24H0z" fill="none"></path>
  </symbol>
  </defs>
</svg>